<?xml version="1.0" encoding="utf-8"?>
<!-- Generator: Adobe Illustrator 21.1.0, SVG Export Plug-In . SVG Version: 6.00 Build 0)  -->
<svg version="1.1" xmlns="http://www.w3.org/2000/svg" xmlns:xlink="http://www.w3.org/1999/xlink" x="0px" y="0px"
	 viewBox="52 14 425.2 200.4" style="enable-background:new 0 0 529.2 228.4;" xml:space="preserve">
<style type="text/css">
	.st0{display:none;}
</style>
<g id="UTS_Logo_Horizontal_Lock-Up">
	<g>
		<polygon points="298.9,76.8 324.9,76.8 324.9,175.2 351.5,175.2 351.5,76.8 377.5,76.8 377.5,53.2 298.9,53.2 		"/>
		<path d="M248.9,137.5c0,9.8-5.8,16-14.9,16c-9.3,0-14.9-6.1-14.9-16V53.2h-26.6v84.7c0,24.2,16.7,39.2,41.4,39.2
			s41.4-15.1,41.4-39.2V53.2h-26.6V137.5z"/>
		<path d="M446.3,102.8L431.1,97c-8.4-3.2-9.8-8.5-9.8-12.1c0-6.7,4.8-11.7,13.4-11.7c8.4,0,13.9,5.6,13.9,14.3v3.3h24.9v-2.8
			c0-22.7-15.6-36.8-38.8-36.8c-24.3,0-38.5,16.7-38.5,35.3c0,17.8,9.3,28.4,26.9,35.1l17.1,6.5c7.6,3,10.6,7.1,10.6,13.2
			c0,8.5-5.6,13.6-15.6,13.6s-16.2-4.6-16.2-14.5V136h-25.1v4.3c0,22.7,17.5,36.8,41.3,36.8c26,0,40.9-15.8,40.9-38.3
			C476,116.3,461.5,108.5,446.3,102.8z"/>
		<rect x="56.5" y="95.3" transform="matrix(0.7071 -0.7071 0.7071 0.7071 -54.2158 76.0526)" width="16.3" height="16.3"/>
		<path d="M102.1,106.2l8.8,8.8l11.5-11.5l-11.8-11.8c-4.7-4.7-12.4-4.7-17.1,0l-40.4,40.4l11.5,11.5L102.1,106.2z"/>
		<path d="M99.3,155.2l-11.5-11.5l-8.8,8.8l-8.8-8.8l-11.5,11.5l11.8,11.8c4.7,4.7,12.4,4.7,17.1,0L99.3,155.2z"/>
		<path d="M102.1,175.5l-8.8-8.8l-11.5,11.5L93.5,190c4.7,4.7,12.4,4.7,17.1,0l11.8-11.8l-11.5-11.5L102.1,175.5z"/>
		<path d="M125.2,152.4l-8.8-8.8l-11.5,11.5l11.8,11.8c4.7,4.7,12.4,4.7,17.1,0l11.8-11.8L134,143.6L125.2,152.4z"/>
		<rect x="131.3" y="123.9" transform="matrix(0.7071 -0.7071 0.7071 0.7071 -52.5342 137.3136)" width="16.3" height="16.3"/>
		<path d="M102.1,129.3l-8.8-8.8l-11.5,11.5l11.8,11.8c4.7,4.7,12.4,4.7,17.1,0l40.4-40.4l-11.5-11.5L102.1,129.3z"/>
		<rect x="91.2" y="18.7" transform="matrix(0.7073 -0.707 0.707 0.7073 8.9711 80.837)" width="21.8" height="21.8"/>
		<path d="M82.9,64.6h11v21.9c5-3,11.3-3,16.3,0V64.6h11l7.2,7.2l15.4-15.4l-15.4-15.4l-7.2,7.2H82.9l-7.2-7.2L60.2,56.5l15.4,15.4
			L82.9,64.6z"/>
	</g>
</g>
<g id="Guides" class="st0">
</g>
</svg>